{
	"asset":{
		"generator":"Khronos glTF Blender I/O v4.5.47",
		"version":"2.0"
	},
	"scene":0,
	"scenes":[
		{
			"name":"Scene",
			"nodes":[
				0
			]
		}
	],
	"nodes":[
		{
			"mesh":0,
			"name":"Cylinder.005",
			"scale":[
				0.007499999832361937,
				0.014999999664723873,
				0.007499999832361937
			],
			"translation":[
				11.445786476135254,
				0.5468556880950928,
				0.015867963433265686
			]
		}
	],
	"materials":[
		{
			"doubleSided":true,
			"name":"Material.006",
			"pbrMetallicRoughness":{
				"baseColorFactor":[
					0.4878947138786316,
					0.7892495393753052,
					1,
					1
				],
				"metallicFactor":0,
				"roughnessFactor":0.5
			}
		},
		{
			"doubleSided":true,
			"name":"Material.003",
			"pbrMetallicRoughness":{
				"baseColorFactor":[
					0.5889080166816711,
					0.5699575543403625,
					0.3640788793563843,
					1
				],
				"metallicFactor":0,
				"roughnessFactor":0.5
			}
		}
	],
	"meshes":[
		{
			"name":"Cylinder.010",
			"primitives":[
				{
					"attributes":{
						"POSITION":0,
						"NORMAL":1,
						"TEXCOORD_0":2
					},
					"indices":3,
					"material":0
				},
				{
					"attributes":{
						"POSITION":4,
						"NORMAL":5,
						"TEXCOORD_0":6
					},
					"indices":7,
					"material":1
				}
			]
		}
	],
	"accessors":[
		{
			"bufferView":0,
			"componentType":5126,
			"count":768,
			"max":[
				32.61357879638672,
				-4.521449089050293,
				40.625083923339844
			],
			"min":[
				-40.20160675048828,
				-6.521462440490723,
				-32.985694885253906
			],
			"type":"VEC3"
		},
		{
			"bufferView":1,
			"componentType":5126,
			"count":768,
			"type":"VEC3"
		},
		{
			"bufferView":2,
			"componentType":5126,
			"count":768,
			"type":"VEC2"
		},
		{
			"bufferView":3,
			"componentType":5123,
			"count":1488,
			"type":"SCALAR"
		},
		{
			"bufferView":4,
			"componentType":5126,
			"count":570,
			"max":[
				35.05986022949219,
				11.033097267150879,
				42.316123962402344
			],
			"min":[
				-42.551246643066406,
				-4.521457195281982,
				-35.339622497558594
			],
			"type":"VEC3"
		},
		{
			"bufferView":5,
			"componentType":5126,
			"count":570,
			"type":"VEC3"
		},
		{
			"bufferView":6,
			"componentType":5126,
			"count":570,
			"type":"VEC2"
		},
		{
			"bufferView":7,
			"componentType":5123,
			"count":1008,
			"type":"SCALAR"
		}
	],
	"bufferViews":[
		{
			"buffer":0,
			"byteLength":9216,
			"byteOffset":0,
			"target":34962
		},
		{
			"buffer":0,
			"byteLength":9216,
			"byteOffset":9216,
			"target":34962
		},
		{
			"buffer":0,
			"byteLength":6144,
			"byteOffset":18432,
			"target":34962
		},
		{
			"buffer":0,
			"byteLength":2976,
			"byteOffset":24576,
			"target":34963
		},
		{
			"buffer":0,
			"byteLength":6840,
			"byteOffset":27552,
			"target":34962
		},
		{
			"buffer":0,
			"byteLength":6840,
			"byteOffset":34392,
			"target":34962
		},
		{
			"buffer":0,
			"byteLength":4560,
			"byteOffset":41232,
			"target":34962
		},
		{
			"buffer":0,
			"byteLength":2016,
			"byteOffset":45792,
			"target":34963
		}
	],
	"buffers":[
		{
			"byteLength":47808,
			"uri":"banco.bin"
		}
	]
}
