{
	"asset":{
		"generator":"Khronos glTF Blender I/O v4.5.47",
		"version":"2.0"
	},
	"scene":0,
	"scenes":[
		{
			"name":"Scene",
			"nodes":[
				0
			]
		}
	],
	"nodes":[
		{
			"mesh":0,
			"name":"cadeira3020",
			"rotation":[
				-0.697587788105011,
				-0.6269789934158325,
				0.2598162889480591,
				0.22970440983772278
			],
			"scale":[
				0.4858342409133911,
				0.30000001192092896,
				0.6287323832511902
			],
			"translation":[
				1.1676288843154907,
				0.3500005602836609,
				-16.959253311157227
			]
		}
	],
	"materials":[
		{
			"doubleSided":true,
			"name":"Material.003",
			"pbrMetallicRoughness":{
				"baseColorFactor":[
					0.5889080166816711,
					0.5699575543403625,
					0.3640788793563843,
					1
				],
				"metallicFactor":0,
				"roughnessFactor":0.5
			}
		},
		{
			"doubleSided":true,
			"name":"Material.006",
			"pbrMetallicRoughness":{
				"baseColorFactor":[
					0.4878947138786316,
					0.7892495393753052,
					1,
					1
				],
				"metallicFactor":0,
				"roughnessFactor":0.5
			}
		}
	],
	"meshes":[
		{
			"name":"Cube.089",
			"primitives":[
				{
					"attributes":{
						"POSITION":0,
						"NORMAL":1,
						"TEXCOORD_0":2
					},
					"indices":3,
					"material":0
				},
				{
					"attributes":{
						"POSITION":4,
						"NORMAL":5,
						"TEXCOORD_0":6
					},
					"indices":7,
					"material":1
				}
			]
		}
	],
	"accessors":[
		{
			"bufferView":0,
			"componentType":5126,
			"count":1428,
			"max":[
				0.7824251651763916,
				0.7754800319671631,
				0.48475390672683716
			],
			"min":[
				-0.46544149518013,
				-1.160902976989746,
				-0.47699853777885437
			],
			"type":"VEC3"
		},
		{
			"bufferView":1,
			"componentType":5126,
			"count":1428,
			"type":"VEC3"
		},
		{
			"bufferView":2,
			"componentType":5126,
			"count":1428,
			"type":"VEC2"
		},
		{
			"bufferView":3,
			"componentType":5123,
			"count":2208,
			"type":"SCALAR"
		},
		{
			"bufferView":4,
			"componentType":5126,
			"count":240,
			"max":[
				-0.4152115285396576,
				0.706475019454956,
				0.3200583755970001
			],
			"min":[
				-0.7028427124023438,
				-0.6265897750854492,
				-0.3165164291858673
			],
			"type":"VEC3"
		},
		{
			"bufferView":5,
			"componentType":5126,
			"count":240,
			"type":"VEC3"
		},
		{
			"bufferView":6,
			"componentType":5126,
			"count":240,
			"type":"VEC2"
		},
		{
			"bufferView":7,
			"componentType":5123,
			"count":444,
			"type":"SCALAR"
		}
	],
	"bufferViews":[
		{
			"buffer":0,
			"byteLength":17136,
			"byteOffset":0,
			"target":34962
		},
		{
			"buffer":0,
			"byteLength":17136,
			"byteOffset":17136,
			"target":34962
		},
		{
			"buffer":0,
			"byteLength":11424,
			"byteOffset":34272,
			"target":34962
		},
		{
			"buffer":0,
			"byteLength":4416,
			"byteOffset":45696,
			"target":34963
		},
		{
			"buffer":0,
			"byteLength":2880,
			"byteOffset":50112,
			"target":34962
		},
		{
			"buffer":0,
			"byteLength":2880,
			"byteOffset":52992,
			"target":34962
		},
		{
			"buffer":0,
			"byteLength":1920,
			"byteOffset":55872,
			"target":34962
		},
		{
			"buffer":0,
			"byteLength":888,
			"byteOffset":57792,
			"target":34963
		}
	],
	"buffers":[
		{
			"byteLength":58680,
			"uri":"cadeira3.bin"
		}
	]
}
