{
	"asset":{
		"generator":"Khronos glTF Blender I/O v4.5.47",
		"version":"2.0"
	},
	"scene":0,
	"scenes":[
		{
			"name":"Scene",
			"nodes":[
				0,
				1,
				2,
				3
			]
		}
	],
	"nodes":[
		{
			"mesh":0,
			"name":"Cylinder",
			"scale":[
				0.023971691727638245,
				0.6604040861129761,
				0.023971691727638245
			],
			"translation":[
				0,
				1.2672537565231323,
				0
			]
		},
		{
			"mesh":1,
			"name":"Cube",
			"scale":[
				0.20478373765945435,
				0.20478373765945435,
				0.20478373765945435
			],
			"translation":[
				0,
				0.33977872133255005,
				0
			]
		},
		{
			"mesh":2,
			"name":"Cube.001",
			"scale":[
				0.04938838630914688,
				0.121193528175354,
				0.12132658064365387
			],
			"translation":[
				-0.19460225105285645,
				0.34216219186782837,
				0.005780057515949011
			]
		},
		{
			"mesh":3,
			"name":"Cylinder.001",
			"scale":[
				0.11957018822431564,
				0.012882922776043415,
				0.11957018822431564
			],
			"translation":[
				0,
				0.5564766526222229,
				0
			]
		}
	],
	"meshes":[
		{
			"name":"Cylinder",
			"primitives":[
				{
					"attributes":{
						"POSITION":0,
						"NORMAL":1,
						"TEXCOORD_0":2
					},
					"indices":3
				}
			]
		},
		{
			"name":"Cube.001",
			"primitives":[
				{
					"attributes":{
						"POSITION":4,
						"NORMAL":5,
						"TEXCOORD_0":6
					},
					"indices":7
				}
			]
		},
		{
			"name":"Cube.002",
			"primitives":[
				{
					"attributes":{
						"POSITION":8,
						"NORMAL":9,
						"TEXCOORD_0":10
					},
					"indices":7
				}
			]
		},
		{
			"name":"Cylinder.001",
			"primitives":[
				{
					"attributes":{
						"POSITION":11,
						"NORMAL":12,
						"TEXCOORD_0":13
					},
					"indices":14
				}
			]
		}
	],
	"accessors":[
		{
			"bufferView":0,
			"componentType":5126,
			"count":192,
			"max":[
				1,
				1,
				1
			],
			"min":[
				-1,
				-1,
				-1
			],
			"type":"VEC3"
		},
		{
			"bufferView":1,
			"componentType":5126,
			"count":192,
			"type":"VEC3"
		},
		{
			"bufferView":2,
			"componentType":5126,
			"count":192,
			"type":"VEC2"
		},
		{
			"bufferView":3,
			"componentType":5123,
			"count":372,
			"type":"SCALAR"
		},
		{
			"bufferView":4,
			"componentType":5126,
			"count":24,
			"max":[
				1,
				1,
				1
			],
			"min":[
				-1,
				-1,
				-1
			],
			"type":"VEC3"
		},
		{
			"bufferView":5,
			"componentType":5126,
			"count":24,
			"type":"VEC3"
		},
		{
			"bufferView":6,
			"componentType":5126,
			"count":24,
			"type":"VEC2"
		},
		{
			"bufferView":7,
			"componentType":5123,
			"count":36,
			"type":"SCALAR"
		},
		{
			"bufferView":8,
			"componentType":5126,
			"count":24,
			"max":[
				1,
				1,
				1
			],
			"min":[
				-1,
				-1,
				-1
			],
			"type":"VEC3"
		},
		{
			"bufferView":9,
			"componentType":5126,
			"count":24,
			"type":"VEC3"
		},
		{
			"bufferView":10,
			"componentType":5126,
			"count":24,
			"type":"VEC2"
		},
		{
			"bufferView":11,
			"componentType":5126,
			"count":832,
			"max":[
				1,
				5.165074348449707,
				1
			],
			"min":[
				-1,
				-1,
				-1
			],
			"type":"VEC3"
		},
		{
			"bufferView":12,
			"componentType":5126,
			"count":832,
			"type":"VEC3"
		},
		{
			"bufferView":13,
			"componentType":5126,
			"count":832,
			"type":"VEC2"
		},
		{
			"bufferView":14,
			"componentType":5123,
			"count":1332,
			"type":"SCALAR"
		}
	],
	"bufferViews":[
		{
			"buffer":0,
			"byteLength":2304,
			"byteOffset":0,
			"target":34962
		},
		{
			"buffer":0,
			"byteLength":2304,
			"byteOffset":2304,
			"target":34962
		},
		{
			"buffer":0,
			"byteLength":1536,
			"byteOffset":4608,
			"target":34962
		},
		{
			"buffer":0,
			"byteLength":744,
			"byteOffset":6144,
			"target":34963
		},
		{
			"buffer":0,
			"byteLength":288,
			"byteOffset":6888,
			"target":34962
		},
		{
			"buffer":0,
			"byteLength":288,
			"byteOffset":7176,
			"target":34962
		},
		{
			"buffer":0,
			"byteLength":192,
			"byteOffset":7464,
			"target":34962
		},
		{
			"buffer":0,
			"byteLength":72,
			"byteOffset":7656,
			"target":34963
		},
		{
			"buffer":0,
			"byteLength":288,
			"byteOffset":7728,
			"target":34962
		},
		{
			"buffer":0,
			"byteLength":288,
			"byteOffset":8016,
			"target":34962
		},
		{
			"buffer":0,
			"byteLength":192,
			"byteOffset":8304,
			"target":34962
		},
		{
			"buffer":0,
			"byteLength":9984,
			"byteOffset":8496,
			"target":34962
		},
		{
			"buffer":0,
			"byteLength":9984,
			"byteOffset":18480,
			"target":34962
		},
		{
			"buffer":0,
			"byteLength":6656,
			"byteOffset":28464,
			"target":34962
		},
		{
			"buffer":0,
			"byteLength":2664,
			"byteOffset":35120,
			"target":34963
		}
	],
	"buffers":[
		{
			"byteLength":37784,
			"uri":"projetor.bin"
		}
	]
}
