{
	"asset":{
		"generator":"Khronos glTF Blender I/O v4.5.47",
		"version":"2.0"
	},
	"scene":0,
	"scenes":[
		{
			"name":"Scene",
			"nodes":[
				0
			]
		}
	],
	"nodes":[
		{
			"mesh":0,
			"name":"Cube.036",
			"rotation":[
				0,
				-0.396177738904953,
				0,
				0.9181739687919617
			],
			"scale":[
				0.9109391570091248,
				0.846450686454773,
				0.8802253603935242
			],
			"translation":[
				-0.6558665037155151,
				0.2891228199005127,
				-17.303659439086914
			]
		}
	],
	"materials":[
		{
			"doubleSided":true,
			"name":"Material.003",
			"pbrMetallicRoughness":{
				"baseColorFactor":[
					0.5889080166816711,
					0.5699575543403625,
					0.3640788793563843,
					1
				],
				"metallicFactor":0,
				"roughnessFactor":0.5
			}
		},
		{
			"doubleSided":true,
			"name":"Material.006",
			"pbrMetallicRoughness":{
				"baseColorFactor":[
					0.4878947138786316,
					0.7892495393753052,
					1,
					1
				],
				"metallicFactor":0,
				"roughnessFactor":0.5
			}
		}
	],
	"meshes":[
		{
			"name":"Cube.068",
			"primitives":[
				{
					"attributes":{
						"POSITION":0,
						"NORMAL":1,
						"TEXCOORD_0":2
					},
					"indices":3,
					"material":0
				},
				{
					"attributes":{
						"POSITION":4,
						"NORMAL":5,
						"TEXCOORD_0":6
					},
					"indices":7
				},
				{
					"attributes":{
						"POSITION":8,
						"NORMAL":9,
						"TEXCOORD_0":10
					},
					"indices":11,
					"material":1
				}
			]
		}
	],
	"accessors":[
		{
			"bufferView":0,
			"componentType":5126,
			"count":2496,
			"max":[
				0.6679781079292297,
				0.49467557668685913,
				1.023482084274292
			],
			"min":[
				-0.49494948983192444,
				-0.28250008821487427,
				-0.9078407287597656
			],
			"type":"VEC3"
		},
		{
			"bufferView":1,
			"componentType":5126,
			"count":2496,
			"type":"VEC3"
		},
		{
			"bufferView":2,
			"componentType":5126,
			"count":2496,
			"type":"VEC2"
		},
		{
			"bufferView":3,
			"componentType":5123,
			"count":3744,
			"type":"SCALAR"
		},
		{
			"bufferView":4,
			"componentType":5126,
			"count":600,
			"max":[
				-0.08504259586334229,
				0.49467557668685913,
				0.05782020092010498
			],
			"min":[
				-0.39031854271888733,
				-0.11455263197422028,
				-0.7374306917190552
			],
			"type":"VEC3"
		},
		{
			"bufferView":5,
			"componentType":5126,
			"count":600,
			"type":"VEC3"
		},
		{
			"bufferView":6,
			"componentType":5126,
			"count":600,
			"type":"VEC2"
		},
		{
			"bufferView":7,
			"componentType":5123,
			"count":900,
			"type":"SCALAR"
		},
		{
			"bufferView":8,
			"componentType":5126,
			"count":768,
			"max":[
				0.6688815355300903,
				-0.28250014781951904,
				0.9543696641921997
			],
			"min":[
				-0.42979010939598083,
				-0.34157031774520874,
				-0.840328574180603
			],
			"type":"VEC3"
		},
		{
			"bufferView":9,
			"componentType":5126,
			"count":768,
			"type":"VEC3"
		},
		{
			"bufferView":10,
			"componentType":5126,
			"count":768,
			"type":"VEC2"
		},
		{
			"bufferView":11,
			"componentType":5123,
			"count":1488,
			"type":"SCALAR"
		}
	],
	"bufferViews":[
		{
			"buffer":0,
			"byteLength":29952,
			"byteOffset":0,
			"target":34962
		},
		{
			"buffer":0,
			"byteLength":29952,
			"byteOffset":29952,
			"target":34962
		},
		{
			"buffer":0,
			"byteLength":19968,
			"byteOffset":59904,
			"target":34962
		},
		{
			"buffer":0,
			"byteLength":7488,
			"byteOffset":79872,
			"target":34963
		},
		{
			"buffer":0,
			"byteLength":7200,
			"byteOffset":87360,
			"target":34962
		},
		{
			"buffer":0,
			"byteLength":7200,
			"byteOffset":94560,
			"target":34962
		},
		{
			"buffer":0,
			"byteLength":4800,
			"byteOffset":101760,
			"target":34962
		},
		{
			"buffer":0,
			"byteLength":1800,
			"byteOffset":106560,
			"target":34963
		},
		{
			"buffer":0,
			"byteLength":9216,
			"byteOffset":108360,
			"target":34962
		},
		{
			"buffer":0,
			"byteLength":9216,
			"byteOffset":117576,
			"target":34962
		},
		{
			"buffer":0,
			"byteLength":6144,
			"byteOffset":126792,
			"target":34962
		},
		{
			"buffer":0,
			"byteLength":2976,
			"byteOffset":132936,
			"target":34963
		}
	],
	"buffers":[
		{
			"byteLength":135912,
			"uri":"sofa.bin"
		}
	]
}
